<svg width="55" height="55" viewBox="0 0 55 55" fill="none" xmlns="http://www.w3.org/2000/svg">
<g clip-path="url(#clip0_87_3)">
<path d="M55.4583 14.2083V41.7083C55.4583 42.9687 55.0095 44.0477 54.112 44.9453C53.2144 45.8429 52.1354 46.2917 50.875 46.2917H14.2083C12.9479 46.2917 11.8689 45.8429 10.9714 44.9453C10.0738 44.0477 9.625 42.9687 9.625 41.7083V14.2083C9.625 12.9479 10.0738 11.8689 10.9714 10.9714C11.8689 10.0738 12.9479 9.625 14.2083 9.625H50.875C52.1354 9.625 53.2144 10.0738 54.112 10.9714C55.0095 11.8689 55.4583 12.9479 55.4583 14.2083ZM14.2083 18.7917H50.875V14.2083H14.2083V18.7917ZM14.2083 27.9583V41.7083H50.875V27.9583H14.2083Z" fill="#1B4965"/>
</g>
<defs>
<clipPath id="clip0_87_3">
<rect width="55" height="55" fill="white"/>
</clipPath>
</defs>
</svg>
