<svg width="548" height="592" viewBox="0 0 548 592" fill="none" xmlns="http://www.w3.org/2000/svg">
<path d="M324.009 488.947H84.9427C81.0983 488.892 77.4167 487.387 74.6362 484.731C71.8558 482.076 70.182 478.467 69.9507 474.63L48.5121 59.4449C48.3933 57.5981 48.6572 55.7467 49.2873 54.0067C49.9174 52.2667 50.9002 50.6756 52.174 49.3332C53.4478 47.9907 54.9852 46.9259 56.6898 46.2054C58.3944 45.4849 60.2294 45.1243 62.0799 45.1462H301.146C304.989 45.196 308.67 46.6979 311.451 49.3503C314.232 52.0026 315.906 55.6089 316.138 59.4449L337.539 474.63C337.658 476.474 337.395 478.323 336.767 480.062C336.139 481.8 335.16 483.391 333.891 484.734C332.621 486.077 331.089 487.145 329.388 487.869C327.688 488.594 325.857 488.961 324.009 488.947Z" fill="#780000"/>
<path opacity="0.8" d="M324.009 488.947H84.9427C81.0983 488.892 77.4167 487.387 74.6362 484.731C71.8558 482.076 70.182 478.467 69.9507 474.63L48.5121 59.4449C48.3933 57.5981 48.6572 55.7467 49.2873 54.0067C49.9174 52.2667 50.9002 50.6756 52.174 49.3332C53.4478 47.9907 54.9852 46.9259 56.6898 46.2054C58.3944 45.4849 60.2294 45.1243 62.0799 45.1462H301.146C304.989 45.196 308.67 46.6979 311.451 49.3503C314.232 52.0026 315.906 55.6089 316.138 59.4449L337.539 474.63C337.658 476.474 337.395 478.323 336.767 480.062C336.139 481.8 335.16 483.391 333.891 484.734C332.621 486.077 331.089 487.145 329.388 487.869C327.688 488.594 325.857 488.961 324.009 488.947Z" fill="white"/>
<path d="M277.552 31.616H251.11V33.49H277.552V31.616Z" fill="#780000"/>
<path d="M241.946 31.616H232.258V33.49H241.946V31.616Z" fill="#780000"/>
<path d="M334.297 462.599H105.669C101.987 462.563 98.4558 461.134 95.7854 458.599C93.115 456.064 91.504 452.612 91.2767 448.937L70.8127 51.8364C70.6989 50.0691 70.9516 48.2972 71.5549 46.6321C72.1581 44.9669 73.0989 43.4444 74.3183 42.16C75.5376 40.8755 77.0092 39.8569 78.6407 39.1679C80.2723 38.4789 82.0286 38.1345 83.7995 38.1562H312.427C316.109 38.1969 319.638 39.6307 322.305 42.1689C324.972 44.7072 326.579 48.1615 326.801 51.8364L347.265 448.937C347.379 450.702 347.127 452.471 346.524 454.134C345.922 455.797 344.983 457.318 343.765 458.6C342.547 459.883 341.078 460.9 339.449 461.588C337.819 462.276 336.065 462.62 334.297 462.599Z" fill="#780000"/>
<path d="M334.298 453.472H105.669C104.329 453.426 103.051 452.889 102.081 451.963C101.11 451.037 100.513 449.787 100.403 448.45L79.9206 51.3679C79.8742 50.8397 79.9405 50.3077 80.1149 49.807C80.2893 49.3063 80.568 48.8483 80.9326 48.4632C81.2981 48.0791 81.7411 47.7769 82.2321 47.5766C82.7232 47.3763 83.2511 47.2825 83.7811 47.3014H312.409C313.747 47.3519 315.019 47.8909 315.986 48.8164C316.953 49.7419 317.547 50.9897 317.656 52.3237L338.233 449.405C338.278 449.932 338.211 450.462 338.037 450.96C337.863 451.459 337.586 451.915 337.223 452.299C336.86 452.683 336.421 452.986 335.932 453.188C335.444 453.391 334.919 453.487 334.391 453.472H334.298ZM83.7811 47.7699C83.3151 47.7548 82.8512 47.837 82.4188 48.0112C81.9865 48.1855 81.5952 48.4479 81.2699 48.7818C80.957 49.1279 80.7177 49.5339 80.5663 49.9752C80.4149 50.4165 80.3546 50.8839 80.3891 51.3492L100.853 448.431C100.957 449.647 101.503 450.783 102.386 451.625C103.27 452.468 104.431 452.958 105.651 453.004H334.279C334.742 453.022 335.204 452.941 335.634 452.767C336.064 452.592 336.452 452.328 336.771 451.992C337.092 451.651 337.336 451.245 337.488 450.803C337.64 450.36 337.696 449.89 337.652 449.424L317.207 52.3424C317.107 51.1279 316.565 49.992 315.685 49.1494C314.804 48.3069 313.646 47.8161 312.428 47.7699H83.7811Z" fill="white"/>
<path opacity="0.3" d="M254.328 192.022C280.332 165.338 278.638 121.513 250.545 94.1369C222.453 66.7606 178.599 66.1997 152.595 92.8841C126.591 119.568 128.284 163.393 156.377 190.77C184.47 218.146 228.324 218.707 254.328 192.022Z" fill="white"/>
<path d="M259.524 142.463C260.049 151.672 258.197 160.862 254.146 169.149C249.761 178.038 242.954 185.507 234.509 190.695C226.065 195.884 216.326 198.582 206.415 198.477C196.144 198.384 186.072 195.635 177.179 190.495C168.286 185.356 160.875 178.002 155.667 169.149C150.813 161.053 148.021 151.89 147.534 142.463C147.072 135.234 148.107 127.987 150.574 121.176C153.042 114.365 156.888 108.136 161.874 102.88C166.859 97.6241 172.875 93.4535 179.546 90.6295C186.217 87.8055 193.399 86.3887 200.643 86.4679C215.72 86.6251 230.176 92.4892 241.102 102.879C252.028 113.269 258.61 127.414 259.524 142.463Z" fill="white"/>
<path d="M254.09 169.149C249.705 178.038 242.898 185.507 234.454 190.695C226.009 195.884 216.27 198.582 206.359 198.477C196.088 198.384 186.016 195.635 177.123 190.495C168.23 185.356 160.819 178.002 155.611 169.149C169.852 159.314 186.766 154.081 204.073 154.157C221.843 154.224 239.213 159.43 254.09 169.149Z" fill="#780000"/>
<path d="M220.822 141.161C230.19 131.547 229.577 115.755 219.452 105.888C209.326 96.0208 193.523 95.8155 184.155 105.429C174.786 115.043 175.4 130.835 185.525 140.702C195.65 150.569 211.453 150.775 220.822 141.161Z" fill="#780000"/>
<path d="M301.52 308.106H122.497C120.938 308.09 119.443 307.484 118.312 306.409C117.182 305.335 116.501 303.872 116.407 302.315L115.057 276.079C115.011 275.333 115.119 274.585 115.375 273.883C115.631 273.18 116.029 272.538 116.544 271.996C117.059 271.454 117.681 271.024 118.37 270.734C119.059 270.443 119.8 270.298 120.548 270.307H299.571C301.128 270.323 302.62 270.927 303.75 271.997C304.88 273.068 305.563 274.526 305.662 276.079L307.011 302.315C307.06 303.063 306.954 303.813 306.7 304.518C306.445 305.223 306.048 305.867 305.532 306.411C305.016 306.955 304.394 307.386 303.703 307.678C303.013 307.97 302.27 308.115 301.52 308.106Z" fill="white"/>
<path opacity="0.3" d="M246.706 255.821H171.933C170.368 255.81 168.865 255.203 167.731 254.124C166.596 253.045 165.914 251.575 165.824 250.012L165.543 244.39C165.494 243.642 165.6 242.892 165.854 242.187C166.109 241.483 166.507 240.838 167.022 240.294C167.538 239.75 168.16 239.319 168.851 239.027C169.541 238.736 170.284 238.59 171.034 238.599H245.788C247.347 238.615 248.842 239.222 249.972 240.296C251.102 241.371 251.783 242.833 251.878 244.39L252.178 250.012C252.224 250.758 252.117 251.506 251.862 252.21C251.608 252.913 251.212 253.557 250.7 254.101C250.187 254.646 249.568 255.079 248.881 255.375C248.194 255.671 247.454 255.823 246.706 255.821Z" fill="black"/>
<path opacity="0.3" d="M274.516 434.245H162.507C159.855 434.212 157.313 433.178 155.391 431.35C153.469 429.522 152.309 427.035 152.144 424.388L151.488 411.457C151.422 410.186 151.615 408.915 152.057 407.722C152.498 406.528 153.177 405.437 154.054 404.514C154.931 403.592 155.986 402.858 157.156 402.357C158.326 401.856 159.586 401.598 160.858 401.6H272.83C275.482 401.633 278.024 402.667 279.946 404.495C281.868 406.323 283.028 408.81 283.193 411.457L283.849 424.388C283.915 425.655 283.723 426.923 283.284 428.114C282.845 429.306 282.169 430.395 281.296 431.317C280.423 432.239 279.372 432.974 278.207 433.477C277.041 433.98 275.786 434.242 274.516 434.245Z" fill="black"/>
<path d="M304.8 371.56H125.758C124.2 371.539 122.707 370.931 121.578 369.858C120.449 368.784 119.766 367.324 119.667 365.769L118.318 339.533C118.272 338.786 118.38 338.037 118.635 337.333C118.891 336.63 119.289 335.986 119.804 335.443C120.319 334.9 120.94 334.469 121.629 334.176C122.318 333.883 123.06 333.736 123.809 333.742H302.832C304.391 333.758 305.887 334.365 307.017 335.439C308.147 336.514 308.828 337.976 308.923 339.533L310.291 365.769C310.334 366.515 310.224 367.263 309.968 367.965C309.711 368.668 309.313 369.31 308.799 369.853C308.284 370.395 307.664 370.827 306.976 371.12C306.288 371.414 305.548 371.563 304.8 371.56Z" fill="white"/>
<path d="M145.211 289.197C145.263 290.025 145.143 290.855 144.859 291.635C144.576 292.415 144.134 293.128 143.563 293.729C142.991 294.331 142.301 294.808 141.537 295.131C140.773 295.454 139.95 295.616 139.12 295.606C137.397 295.586 135.745 294.913 134.497 293.724C133.249 292.535 132.497 290.918 132.393 289.197C132.339 288.37 132.456 287.541 132.737 286.761C133.019 285.981 133.458 285.268 134.028 284.666C134.599 284.064 135.287 283.587 136.05 283.264C136.814 282.941 137.636 282.779 138.465 282.788C140.19 282.808 141.844 283.48 143.096 284.669C144.347 285.857 145.102 287.475 145.211 289.197Z" fill="#263238"/>
<path d="M164.944 289.197C164.998 290.025 164.881 290.854 164.6 291.634C164.318 292.413 163.879 293.127 163.309 293.728C162.738 294.33 162.05 294.808 161.287 295.131C160.523 295.454 159.701 295.616 158.872 295.606C157.147 295.59 155.493 294.919 154.244 293.729C152.995 292.54 152.244 290.92 152.145 289.197C152.09 288.37 152.208 287.541 152.489 286.761C152.771 285.981 153.21 285.268 153.78 284.666C154.351 284.064 155.039 283.587 155.802 283.264C156.566 282.941 157.388 282.779 158.217 282.788C159.942 282.804 161.596 283.475 162.845 284.665C164.094 285.855 164.844 287.475 164.944 289.197Z" fill="#263238"/>
<path d="M184.564 289.197C184.618 290.025 184.501 290.854 184.22 291.634C183.938 292.414 183.499 293.127 182.929 293.728C182.358 294.33 181.67 294.808 180.907 295.131C180.143 295.454 179.321 295.616 178.492 295.606C176.767 295.586 175.113 294.914 173.861 293.726C172.61 292.537 171.855 290.92 171.746 289.197C171.694 288.369 171.814 287.539 172.098 286.76C172.381 285.98 172.823 285.267 173.394 284.665C173.966 284.064 174.656 283.587 175.42 283.264C176.184 282.941 177.007 282.779 177.837 282.788C179.56 282.809 181.212 283.481 182.46 284.67C183.708 285.859 184.46 287.477 184.564 289.197Z" fill="#263238"/>
<path d="M204.335 289.197C204.386 290.024 204.267 290.852 203.984 291.631C203.702 292.409 203.262 293.121 202.693 293.722C202.123 294.324 201.436 294.801 200.674 295.125C199.912 295.449 199.091 295.613 198.263 295.606C196.537 295.586 194.883 294.914 193.632 293.726C192.381 292.537 191.625 290.92 191.517 289.197C191.465 288.371 191.584 287.542 191.867 286.764C192.149 285.985 192.589 285.273 193.159 284.672C193.728 284.071 194.415 283.594 195.177 283.269C195.94 282.945 196.76 282.781 197.588 282.788C199.314 282.808 200.968 283.48 202.219 284.669C203.47 285.857 204.226 287.475 204.335 289.197Z" fill="#263238"/>
<path d="M148.527 352.613C148.581 353.44 148.464 354.27 148.183 355.05C147.901 355.829 147.462 356.543 146.891 357.144C146.321 357.746 145.633 358.224 144.87 358.547C144.106 358.87 143.284 359.032 142.455 359.022C140.73 359.002 139.076 358.33 137.824 357.142C136.573 355.953 135.818 354.336 135.709 352.613C135.657 351.785 135.777 350.955 136.061 350.175C136.344 349.396 136.786 348.683 137.357 348.081C137.929 347.48 138.618 347.003 139.383 346.68C140.147 346.357 140.97 346.195 141.799 346.204C143.523 346.225 145.175 346.897 146.423 348.086C147.671 349.275 148.423 350.893 148.527 352.613Z" fill="#263238"/>
<path d="M168.224 352.613C168.275 353.44 168.156 354.268 167.873 355.047C167.591 355.825 167.151 356.537 166.582 357.138C166.012 357.739 165.325 358.217 164.563 358.541C163.801 358.865 162.98 359.029 162.152 359.022C160.426 359.002 158.772 358.33 157.521 357.142C156.27 355.953 155.514 354.336 155.405 352.613C155.351 351.786 155.468 350.957 155.75 350.177C156.031 349.397 156.471 348.684 157.041 348.082C157.611 347.48 158.3 347.003 159.063 346.68C159.826 346.357 160.648 346.195 161.477 346.204C163.203 346.224 164.857 346.896 166.108 348.085C167.359 349.273 168.115 350.891 168.224 352.613Z" fill="#263238"/>
<path d="M187.919 352.613C187.971 353.441 187.851 354.271 187.567 355.051C187.284 355.831 186.842 356.544 186.271 357.145C185.699 357.747 185.009 358.224 184.245 358.547C183.481 358.87 182.658 359.032 181.828 359.022C180.103 359.006 178.449 358.335 177.2 357.145C175.951 355.955 175.201 354.335 175.101 352.613C175.047 351.786 175.164 350.957 175.445 350.177C175.727 349.397 176.166 348.684 176.736 348.082C177.307 347.48 177.995 347.003 178.758 346.68C179.522 346.357 180.344 346.195 181.173 346.204C182.898 346.224 184.552 346.896 185.804 348.085C187.055 349.273 187.81 350.891 187.919 352.613Z" fill="#263238"/>
<path d="M207.595 352.613C207.65 353.44 207.532 354.27 207.251 355.05C206.97 355.829 206.53 356.543 205.96 357.144C205.39 357.746 204.701 358.224 203.938 358.547C203.175 358.87 202.353 359.032 201.524 359.022C199.798 359.002 198.144 358.33 196.893 357.142C195.642 355.953 194.886 354.336 194.777 352.613C194.726 351.785 194.845 350.955 195.129 350.175C195.413 349.396 195.854 348.683 196.426 348.081C196.997 347.48 197.687 347.003 198.451 346.68C199.215 346.357 200.038 346.195 200.868 346.204C202.593 346.22 204.247 346.891 205.496 348.081C206.745 349.271 207.496 350.891 207.595 352.613Z" fill="#263238"/>
<path d="M227.292 352.613C227.346 353.441 227.229 354.27 226.947 355.05C226.666 355.829 226.226 356.543 225.656 357.144C225.086 357.746 224.398 358.224 223.634 358.547C222.871 358.87 222.049 359.032 221.22 359.022C219.494 359.002 217.84 358.33 216.589 357.142C215.338 355.953 214.582 354.336 214.474 352.613C214.422 351.787 214.541 350.958 214.824 350.18C215.106 349.401 215.546 348.69 216.116 348.088C216.685 347.487 217.372 347.01 218.134 346.685C218.897 346.361 219.717 346.197 220.545 346.204C222.271 346.224 223.925 346.896 225.176 348.085C226.427 349.273 227.183 350.891 227.292 352.613Z" fill="#263238"/>
<path d="M246.987 352.613C247.039 353.441 246.919 354.271 246.636 355.051C246.352 355.831 245.911 356.544 245.339 357.145C244.767 357.747 244.078 358.224 243.314 358.547C242.549 358.87 241.727 359.032 240.897 359.022C239.173 359.002 237.521 358.329 236.273 357.14C235.025 355.951 234.273 354.334 234.169 352.613C234.115 351.786 234.232 350.957 234.514 350.177C234.795 349.397 235.235 348.684 235.805 348.082C236.375 347.48 237.063 347.003 237.827 346.68C238.59 346.357 239.412 346.195 240.241 346.204C241.967 346.224 243.621 346.896 244.872 348.085C246.123 349.273 246.879 350.891 246.987 352.613Z" fill="#263238"/>
<path d="M460.042 134.986C460.51 135.698 460.754 136.073 461.054 136.579L461.897 137.965C462.441 138.902 462.928 139.839 463.396 140.758C464.333 142.632 465.27 144.506 466.02 146.38C467.591 150.102 468.943 153.912 470.068 157.792C472.337 165.457 473.831 173.33 474.528 181.292L474.659 182.773C474.675 183.072 474.675 183.373 474.659 183.672V184.666C474.69 185.969 474.615 187.272 474.434 188.563C474.075 190.957 473.446 193.301 472.56 195.553C470.914 199.576 468.733 203.358 466.076 206.797C461.12 213.144 455.239 218.709 448.629 223.307L443.457 217.254C448.163 211.939 452.332 206.17 455.9 200.032C457.506 197.248 458.765 194.277 459.648 191.187C460.006 189.878 460.214 188.533 460.267 187.177C460.325 186.597 460.325 186.013 460.267 185.434V185.04C460.286 184.866 460.286 184.69 460.267 184.516L460.042 183.204C458.837 176.22 457.133 169.331 454.945 162.59C453.858 159.235 452.527 155.993 451.197 152.826C450.541 151.233 449.791 149.678 449.042 148.179L447.88 145.967L447.299 144.937L446.812 144.112L460.042 134.986Z" fill="#803E3C"/>
<path d="M442.614 223.345L449.398 237.681L454.777 225.556C454.777 225.556 449.998 215.062 443.532 216.036L442.614 223.345Z" fill="#7F3E3B"/>
<path d="M454.252 238.393L459.649 229.548L454.777 225.556L449.398 237.681L454.252 238.393Z" fill="#7F3E3B"/>
<path d="M423.743 569.004C425.147 568.969 426.542 568.78 427.904 568.442C427.973 568.421 428.035 568.382 428.084 568.329C428.134 568.277 428.168 568.212 428.185 568.142C428.196 568.07 428.186 567.996 428.156 567.929C428.126 567.863 428.078 567.806 428.016 567.767C427.473 567.411 422.713 564.338 420.876 565.162C420.673 565.257 420.498 565.404 420.37 565.589C420.241 565.773 420.164 565.988 420.145 566.212C420.088 566.551 420.115 566.899 420.223 567.225C420.331 567.552 420.516 567.847 420.764 568.086C421.613 568.742 422.672 569.068 423.743 569.004ZM426.835 567.898C424.118 568.461 422.057 568.367 421.213 567.636C421.041 567.465 420.915 567.254 420.846 567.021C420.778 566.789 420.768 566.542 420.82 566.305C420.82 565.987 421.007 565.893 421.139 565.837C422.15 565.387 424.905 566.718 426.835 567.898Z" fill="#780000"/>
<path d="M427.809 568.442H427.997C428.053 568.405 428.099 568.355 428.132 568.296C428.165 568.238 428.183 568.172 428.184 568.105C428.184 567.917 428.184 563.401 426.46 561.883C426.248 561.693 425.998 561.551 425.726 561.467C425.454 561.382 425.168 561.358 424.886 561.396C424.59 561.398 424.304 561.502 424.076 561.689C423.847 561.877 423.69 562.137 423.63 562.426C423.274 564.207 426.123 567.58 427.622 568.442H427.809ZM425.129 562.089C425.281 562.085 425.432 562.111 425.574 562.165C425.715 562.22 425.844 562.302 425.954 562.408C426.943 563.865 427.453 565.594 427.416 567.355C425.916 566.156 424.136 563.607 424.361 562.539C424.361 562.37 424.492 562.145 424.961 562.089H425.129Z" fill="#780000"/>
<path d="M406.052 561.358C406.096 561.303 406.125 561.238 406.135 561.168C406.145 561.098 406.136 561.027 406.109 560.962C406.082 560.897 406.038 560.84 405.982 560.798C405.926 560.756 405.86 560.729 405.79 560.721C405.021 560.721 398.294 560.402 396.757 562.052V562.164C396.63 562.326 396.548 562.519 396.518 562.723C396.489 562.926 396.513 563.134 396.588 563.326C396.689 563.648 396.865 563.94 397.104 564.179C397.342 564.417 397.635 564.594 397.956 564.694C400.13 565.369 403.972 562.914 406.071 561.396L406.052 561.358ZM397.319 562.539C398.163 561.639 401.873 561.396 404.647 561.433C401.742 563.42 399.324 564.357 398.106 563.982C397.894 563.917 397.701 563.802 397.544 563.645C397.387 563.488 397.271 563.295 397.207 563.082C397.169 563.01 397.149 562.93 397.149 562.848C397.149 562.766 397.169 562.686 397.207 562.614L397.319 562.539Z" fill="#780000"/>
<path d="M406.053 561.358C406.081 561.3 406.096 561.236 406.096 561.171C406.096 561.106 406.081 561.042 406.053 560.984C405.959 560.834 403.86 557.236 401.387 556.486C401.031 556.382 400.659 556.351 400.291 556.397C399.924 556.442 399.57 556.561 399.25 556.748C398.351 557.273 398.294 557.891 398.407 558.285C398.894 560.028 403.673 561.564 405.734 561.546C405.799 561.545 405.862 561.527 405.918 561.494C405.974 561.461 406.02 561.415 406.053 561.358ZM399.325 557.61C399.431 557.507 399.551 557.418 399.681 557.348C399.913 557.201 400.173 557.106 400.445 557.07C400.717 557.034 400.994 557.059 401.255 557.142C402.886 557.573 404.404 559.672 405.097 560.702C402.867 560.459 399.475 559.091 399.194 558.041C399.17 557.962 399.17 557.877 399.193 557.797C399.216 557.717 399.262 557.646 399.325 557.592V557.61Z" fill="#780000"/>
<path d="M426.685 80.0964C424.811 89.4664 420.763 109.724 427.266 115.946C427.266 115.946 424.717 125.316 407.42 125.316C388.381 125.316 398.332 115.946 398.332 115.946C408.713 113.472 408.451 105.751 406.633 98.5178L426.685 80.0964Z" fill="#7F3E3B"/>
<path d="M394.977 58.1331C395.083 58.1502 395.19 58.1502 395.296 58.1331C395.385 58.0893 395.464 58.0282 395.53 57.9535C395.595 57.8787 395.645 57.7917 395.676 57.6976C395.707 57.6034 395.72 57.504 395.712 57.4051C395.705 57.3061 395.678 57.2096 395.633 57.1211C395.129 56.0522 394.376 55.1197 393.437 54.4023C392.498 53.6849 391.4 53.2034 390.236 52.9983C390.041 52.982 389.847 53.0408 389.694 53.1627C389.54 53.2846 389.44 53.4604 389.412 53.6542C389.39 53.8503 389.447 54.0468 389.57 54.2012C389.693 54.3555 389.872 54.4553 390.067 54.4788C390.986 54.6552 391.85 55.0481 392.586 55.625C393.323 56.2018 393.911 56.946 394.303 57.7958C394.375 57.9066 394.476 57.9962 394.594 58.0554C394.713 58.1147 394.845 58.1415 394.977 58.1331Z" fill="#263238"/>
<path d="M389.298 66.36C387.823 69.0955 385.982 71.6174 383.826 73.856C384.41 74.39 385.103 74.7906 385.857 75.0301C386.611 75.2696 387.408 75.3421 388.193 75.2427L389.298 66.36Z" fill="#630F0F"/>
<path d="M390.704 64.2423C390.554 65.4979 389.748 66.4349 388.943 66.3412C388.137 66.2475 387.575 65.1418 387.724 63.8862C387.874 62.6307 388.68 61.6937 389.598 61.7874C390.517 61.8811 390.835 62.9867 390.704 64.2423Z" fill="#263238"/>
<path d="M389.842 61.8998L386.956 60.738C386.956 60.738 388.174 63.2116 389.842 61.8998Z" fill="#263238"/>
<path d="M422.6 557.797L407.308 561.358L398.013 526.202L413.305 522.641L422.6 557.797Z" fill="#7F3E3B"/>
<path d="M446.062 568.067H430.377L431.595 531.73H447.299L446.062 568.067Z" fill="#7F3E3B"/>
<path d="M429.121 566.25H446.756C447.062 566.247 447.358 566.356 447.589 566.556C447.82 566.756 447.97 567.033 448.011 567.336L450.017 581.279C450.056 581.632 450.021 581.989 449.913 582.326C449.804 582.664 449.626 582.975 449.388 583.239C449.151 583.503 448.861 583.714 448.536 583.857C448.211 584 447.86 584.073 447.505 584.071C441.359 583.978 438.398 583.603 430.639 583.603C425.861 583.603 418.889 584.109 412.312 584.109C405.734 584.109 405.359 577.587 408.114 577.006C420.407 574.345 422.356 570.71 426.498 567.224C427.23 566.599 428.159 566.254 429.121 566.25Z" fill="#263238"/>
<path d="M405.959 559.016L421.981 551.651C422.254 551.521 422.564 551.495 422.854 551.578C423.143 551.661 423.393 551.847 423.556 552.101L431.22 563.944C431.399 564.249 431.512 564.588 431.552 564.939C431.592 565.291 431.558 565.646 431.452 565.983C431.346 566.321 431.171 566.632 430.937 566.897C430.704 567.163 430.417 567.376 430.096 567.524C424.474 569.997 421.625 570.916 414.579 574.158C410.25 576.144 401.461 580.717 395.502 583.528C389.542 586.339 386.469 580.51 388.718 578.824C398.781 571.328 401.667 565.95 403.972 561.058C404.362 560.157 405.069 559.431 405.959 559.016Z" fill="#263238"/>
<path opacity="0.2" d="M398.013 526.202L402.998 545.054L418.102 540.763L413.323 522.641L398.013 526.202Z" fill="black"/>
<path opacity="0.2" d="M447.299 531.73H431.595L430.977 550.47H446.681L447.299 531.73Z" fill="black"/>
<path d="M454.42 119.507C460.942 120.95 467.913 144.393 467.913 144.393L449.473 164.014C449.473 164.014 434.162 141.976 437.292 133.88C440.459 125.428 446.643 117.82 454.42 119.507Z" fill="#263238"/>
<path opacity="0.4" d="M444.001 134.442C440.703 131.425 438.473 132.325 436.955 134.724C435.456 141.695 444.339 156.293 447.918 161.822C449.567 155.225 451.46 141.32 444.001 134.442Z" fill="black"/>
<path d="M371.796 119.975C371.796 119.975 364.3 122.599 379.292 214.706H443.008C441.94 188.77 441.902 172.766 454.252 119.507C445.324 117.665 436.273 116.475 427.173 115.946C417.54 115.252 407.87 115.252 398.238 115.946C385.888 117.089 371.796 119.975 371.796 119.975Z" fill="#263238"/>
<path opacity="0.4" d="M371.215 155.319C371.627 159.798 372.171 164.839 372.883 170.536C378.111 165.832 382.384 152.451 380.81 144.656C377.074 147.687 373.837 151.285 371.215 155.319Z" fill="black"/>
<path d="M378.036 141.32C374.598 149.973 370.727 158.448 366.436 166.713C362.195 175.275 357.177 183.43 351.444 191.075L350.245 192.555L349.645 193.286C349.439 193.53 349.27 193.754 348.952 194.092C347.824 195.322 346.568 196.428 345.204 197.39C342.793 199.058 340.155 200.371 337.371 201.288C332.514 202.839 327.472 203.734 322.379 203.949C312.839 204.328 303.291 203.478 293.969 201.419L294.999 193.548C299.31 193.548 303.826 193.548 308.117 193.192C312.428 192.98 316.721 192.505 320.973 191.768C324.922 191.152 328.785 190.07 332.479 188.545C333.972 187.907 335.366 187.062 336.621 186.034C337.1 185.632 337.534 185.18 337.914 184.684C337.914 184.684 338.139 184.384 338.289 184.178L338.72 183.56L339.601 182.323C344.303 175.06 348.492 167.476 352.138 159.629C355.886 151.664 359.634 143.4 363.063 135.267L378.036 141.32Z" fill="#803E3C"/>
<path d="M371.795 119.975C363.981 121.849 354.386 143.288 354.386 143.288L370.577 167.087C370.577 167.087 392.147 139.933 389.579 131.65C386.956 123.011 381.334 117.651 371.795 119.975Z" fill="#263238"/>
<path d="M299.497 194.748L285.985 188.507L284.636 201.944C284.636 201.944 295.88 205.261 301.502 201.944L299.497 194.748Z" fill="#7F3E3B"/>
<path d="M277.908 187.158L276.615 197.39L284.636 201.944L285.985 188.507L277.908 187.158Z" fill="#7F3E3B"/>
<path d="M433.469 65.1606C430.602 80.4712 429.721 87.0302 420.951 93.9827C407.833 104.44 389.562 97.5808 387.8 81.7267C386.188 67.4468 391.136 44.8089 407.009 40.4987C410.505 39.5341 414.19 39.4813 417.713 40.3452C421.236 41.2092 424.478 42.9612 427.132 45.4342C429.785 47.9071 431.761 51.0186 432.87 54.4718C433.98 57.9251 434.186 61.6049 433.469 65.1606Z" fill="#7F3E3B"/>
<path d="M399.831 68.3839C398.95 76.1985 398.613 96.4939 415.779 97.1311C436.786 97.8994 443.083 79.9465 441.209 72.7691C452.153 63.8676 453.727 48.557 441.434 36.8445C429.14 25.132 402.08 31.6722 394.584 43.0849C385.083 57.2336 399.831 68.3839 399.831 68.3839Z" fill="#263238"/>
<path d="M420.876 41.3983C419.864 33.1527 420.651 27.4745 428.372 27.4745C436.093 27.4745 446.624 30.2667 450.485 38.1563C454.345 46.0458 454.664 58.3955 443.888 57.1399C433.113 55.8843 422.094 51.2555 420.876 41.3983Z" fill="#780000"/>
<path d="M432.832 39.4118C430.958 29.5921 439.747 1.93183 461.092 0.0578351C470.986 -0.785465 475.559 9.85885 470.462 11.6204C479.832 11.508 485.828 23.8951 477.096 25.7504C483.992 30.173 482.287 39.2432 472.448 43.7033C465.121 47.0765 435.362 53.0171 432.832 39.4118Z" fill="#263238"/>
<path d="M455.638 49.9625C448.761 49.9625 441.583 48.9505 437.123 45.9708C435.876 45.2191 434.826 44.181 434.06 42.9426C433.294 41.7042 432.835 40.3011 432.719 38.8497C432.714 38.7264 432.755 38.6057 432.835 38.5118C432.915 38.4179 433.028 38.3578 433.15 38.3437C433.212 38.3358 433.275 38.341 433.335 38.3589C433.395 38.3768 433.451 38.4069 433.498 38.4475C433.546 38.4881 433.585 38.5381 433.612 38.5944C433.639 38.6508 433.654 38.7122 433.656 38.7747C433.769 40.0845 434.189 41.3493 434.883 42.4662C435.577 43.583 436.524 44.5206 437.648 45.2025C446.137 50.8245 465.758 48.9505 471.867 47.0765C477.152 45.3524 480.731 41.998 481.443 38.1375C481.665 36.7209 481.49 35.2704 480.938 33.9472C480.385 32.624 479.477 31.4798 478.314 30.6415C478.269 30.5995 478.233 30.5487 478.209 30.4923C478.184 30.4359 478.172 30.375 478.172 30.3136C478.172 30.2521 478.184 30.1913 478.209 30.1349C478.233 30.0785 478.269 30.0277 478.314 29.9856C478.401 29.8998 478.519 29.8517 478.642 29.8517C478.764 29.8517 478.882 29.8998 478.97 29.9856C480.278 30.9401 481.295 32.2395 481.907 33.7386C482.519 35.2377 482.702 36.8775 482.436 38.4749C481.668 42.6914 477.864 46.2894 472.242 48.126C466.817 49.4934 461.231 50.1113 455.638 49.9625Z" fill="#263238"/>
<path d="M395.052 66.36C393.307 68.8079 392.587 71.8408 393.047 74.8117C393.665 78.7471 397.488 79.0095 400.262 76.4983C403.035 73.9872 405.452 69.4521 403.41 66.1913C402.956 65.487 402.329 64.9105 401.589 64.5168C400.85 64.1231 400.022 63.9253 399.184 63.9422C398.346 63.9591 397.526 64.1902 396.803 64.6134C396.08 65.0366 395.477 65.6379 395.052 66.36Z" fill="#7F3E3B"/>
<path d="M396.12 214.706C396.12 214.706 405.228 322.442 414.691 383.16C422.319 432.202 428.353 546.835 428.353 546.835H449.754C449.754 546.835 457.362 435.632 453.502 387.133C443.701 264.386 465.571 254.378 443.064 214.725L396.12 214.706Z" fill="#780000"/>
<path opacity="0.4" d="M423.068 255.428C414.587 264.329 407.742 274.657 402.848 285.936C405.34 310.149 408.301 337.022 411.449 360.559C424.368 327.114 428.372 290.886 423.068 255.428Z" fill="black"/>
<path d="M381.147 214.031C381.147 214.031 361.376 331.7 358.266 384.734C366.024 433.776 397.77 537.446 397.77 537.446L417.24 530.381C417.24 530.381 406.465 417.341 394.752 386.402C421.12 297.63 440.497 275.18 434.856 214.706C421.344 214.706 381.147 214.031 381.147 214.031Z" fill="#780000"/>
<path d="M395.164 542.618L421.475 535.478L419.976 524.984L391.81 532.611L395.164 542.618Z" fill="#263238"/>
<path d="M425.411 547.266H452.677L454.102 537.708L425.261 536.734L425.411 547.266Z" fill="#263238"/>
<path d="M444.001 210.958L446.869 216.674C447.093 217.123 446.569 217.573 445.838 217.573H378.973C378.411 217.573 377.924 217.292 377.887 216.917L377.306 211.295C377.306 210.902 377.774 210.564 378.393 210.564H442.952C443.146 210.538 443.343 210.56 443.526 210.629C443.709 210.697 443.873 210.81 444.001 210.958Z" fill="#780000"/>
<path opacity="0.5" d="M444.001 210.958L446.869 216.674C447.093 217.123 446.569 217.573 445.838 217.573H378.973C378.411 217.573 377.924 217.292 377.887 216.917L377.306 211.295C377.306 210.902 377.774 210.564 378.393 210.564H442.952C443.146 210.538 443.343 210.56 443.526 210.629C443.709 210.697 443.873 210.81 444.001 210.958Z" fill="black"/>
<path d="M435.324 218.154H437.048C437.404 218.154 437.667 217.967 437.648 217.76L436.823 210.264C436.823 210.039 436.505 209.871 436.168 209.871H434.425C434.087 209.871 433.825 210.039 433.844 210.264L434.65 217.76C434.687 218.004 434.987 218.154 435.324 218.154Z" fill="#780000"/>
<path d="M412.124 163.583C411.917 163.58 411.717 163.511 411.552 163.386C411.387 163.262 411.265 163.088 411.206 162.89C405.097 140.289 392.466 121.662 386.338 118.851C385.862 118.558 385.29 118.464 384.745 118.588C384.632 118.648 384.508 118.684 384.38 118.694C384.253 118.703 384.124 118.687 384.003 118.645C383.882 118.604 383.771 118.538 383.677 118.452C383.582 118.365 383.506 118.261 383.454 118.144C383.401 118.028 383.373 117.901 383.371 117.774C383.369 117.646 383.394 117.519 383.443 117.401C383.491 117.282 383.564 117.176 383.656 117.086C383.748 116.997 383.857 116.928 383.977 116.883C384.489 116.695 385.036 116.621 385.58 116.666C386.124 116.712 386.651 116.875 387.125 117.145C393.609 120.219 406.427 138.584 412.836 161.69C417.427 161.69 424.511 161.072 426.235 160.922C428.372 158.373 444.076 138.734 438.21 117.239C438.176 117.121 438.166 116.997 438.181 116.875C438.196 116.753 438.235 116.635 438.296 116.529C438.357 116.422 438.439 116.329 438.537 116.254C438.635 116.18 438.747 116.126 438.866 116.096C439.105 116.033 439.358 116.066 439.572 116.189C439.786 116.312 439.943 116.514 440.009 116.752C446.549 140.664 427.585 162.234 427.378 162.44C427.305 162.531 427.214 162.606 427.111 162.661C427.008 162.715 426.895 162.749 426.779 162.758C426.685 162.758 417.334 163.583 412.124 163.583Z" fill="#780000"/>
<path d="M443.176 176.814C432.963 157.68 428.784 156.331 426.966 150.184C428.343 146.747 430.309 143.576 432.775 140.814C431.538 140.458 428.877 139.933 427.153 139.615C427.341 138.771 427.547 137.947 427.734 137.141C425.858 136.931 423.961 137.02 422.112 137.403V135.529C419.732 135.011 417.287 134.853 414.86 135.061C415.072 135.948 415.278 136.847 415.478 137.759C413.604 138.115 410.756 138.696 409.388 139.09C412.046 142.101 413.999 145.667 415.103 149.528C409.594 158.992 388.193 219.822 423.012 224.488C457.831 229.154 453.37 195.966 443.176 176.814Z" fill="#780000"/>
<path opacity="0.4" d="M443.176 176.814C432.963 157.68 428.784 156.331 426.966 150.184C428.343 146.747 430.309 143.576 432.775 140.814C431.538 140.458 428.877 139.933 427.153 139.615C427.341 138.771 427.547 137.947 427.734 137.141C425.858 136.931 423.961 137.02 422.112 137.403V135.529C419.732 135.011 417.287 134.853 414.86 135.061C415.072 135.948 415.278 136.847 415.478 137.759C413.604 138.115 410.756 138.696 409.388 139.09C412.046 142.101 413.999 145.667 415.103 149.528C409.594 158.992 388.193 219.822 423.012 224.488C457.831 229.154 453.37 195.966 443.176 176.814Z" fill="white"/>
<path d="M413.679 147.71C413.462 148.675 413.368 149.664 413.398 150.652C413.398 151.346 415.272 151.814 417.352 152.021C419.432 152.227 428.165 152.564 427.884 151.589C427.603 150.615 428.315 149.284 428.353 148.46C428.39 147.635 424.886 147.598 421.944 147.71C419.001 147.823 414.26 146.661 413.679 147.71Z" fill="#780000"/>
<path d="M393.421 218.154H395.145C395.483 218.154 395.745 217.967 395.726 217.76L394.92 210.264C394.92 210.039 394.602 209.871 394.246 209.871H392.578C392.241 209.871 391.978 210.039 391.997 210.264L392.803 217.76C392.765 218.004 393.065 218.154 393.421 218.154Z" fill="#780000"/>
</svg>
