<svg width="275" height="49" viewBox="0 0 275 49" fill="none" xmlns="http://www.w3.org/2000/svg">
<path d="M22.5 43.25C21.6875 43.25 20.9531 43.0547 20.2969 42.6641C19.6406 42.2734 19.125 41.75 18.75 41.0937C17.7187 41.0937 16.8359 40.7266 16.1016 39.9922C15.3672 39.2578 15 38.375 15 37.3437V30.6875C13.1562 29.4687 11.6797 27.8594 10.5703 25.8594C9.46094 23.8594 8.90625 21.6875 8.90625 19.3437C8.90625 15.5625 10.2266 12.3516 12.8672 9.71094C15.5078 7.07031 18.7187 5.75 22.5 5.75C26.2812 5.75 29.4922 7.07031 32.1328 9.71094C34.7734 12.3516 36.0937 15.5625 36.0937 19.3437C36.0937 21.75 35.5391 23.9375 34.4297 25.9062C33.3203 27.875 31.8437 29.4687 30 30.6875V37.3437C30 38.375 29.6328 39.2578 28.8984 39.9922C28.1641 40.7266 27.2812 41.0937 26.25 41.0937C25.875 41.75 25.3594 42.2734 24.7031 42.6641C24.0469 43.0547 23.3125 43.25 22.5 43.25ZM18.75 37.3437H26.25V35.6562H18.75V37.3437ZM18.75 33.7812H26.25V32H18.75V33.7812ZM18.375 28.25H21.0937V23.1875L16.9687 19.0625L18.9375 17.0937L22.5 20.6562L26.0625 17.0937L28.0312 19.0625L23.9062 23.1875V28.25H26.625C28.3125 27.4375 29.6875 26.2422 30.75 24.6641C31.8125 23.0859 32.3437 21.3125 32.3437 19.3437C32.3437 16.5937 31.3906 14.2656 29.4844 12.3594C27.5781 10.4531 25.25 9.5 22.5 9.5C19.75 9.5 17.4219 10.4531 15.5156 12.3594C13.6094 14.2656 12.6562 16.5937 12.6562 19.3437C12.6562 21.3125 13.1875 23.0859 14.25 24.6641C15.3125 26.2422 16.6875 27.4375 18.375 28.25Z" fill="#1B4965"/>
<path d="M48.32 39V11H53.68L65.6 30.76H62.76L74.48 11H79.8L79.88 39H73.8L73.76 20.32H74.88L65.52 36.04H62.6L53.04 20.32H54.4V39H48.32ZM96.7631 39.32C94.3098 39.32 92.1498 38.84 90.2831 37.88C88.4431 36.92 87.0165 35.6133 86.0031 33.96C84.9898 32.28 84.4831 30.3733 84.4831 28.24C84.4831 26.08 84.9765 24.1733 85.9631 22.52C86.9765 20.84 88.3498 19.5333 90.0831 18.6C91.8165 17.64 93.7765 17.16 95.9631 17.16C98.0698 17.16 99.9631 17.6133 101.643 18.52C103.35 19.4 104.696 20.68 105.683 22.36C106.67 24.0133 107.163 26 107.163 28.32C107.163 28.56 107.15 28.84 107.123 29.16C107.096 29.4533 107.07 29.7333 107.043 30H89.5631V26.36H103.763L101.363 27.44C101.363 26.32 101.136 25.3467 100.683 24.52C100.23 23.6933 99.6031 23.0533 98.8031 22.6C98.0031 22.12 97.0698 21.88 96.0031 21.88C94.9365 21.88 93.9898 22.12 93.1631 22.6C92.3631 23.0533 91.7365 23.7067 91.2831 24.56C90.8298 25.3867 90.6031 26.3733 90.6031 27.52V28.48C90.6031 29.6533 90.8565 30.6933 91.3631 31.6C91.8965 32.48 92.6298 33.16 93.5631 33.64C94.5231 34.0933 95.6431 34.32 96.9231 34.32C98.0698 34.32 99.0698 34.1467 99.9231 33.8C100.803 33.4533 101.603 32.9333 102.323 32.24L105.643 35.84C104.656 36.96 103.416 37.8267 101.923 38.44C100.43 39.0267 98.7098 39.32 96.7631 39.32ZM124.398 17.16C126.104 17.16 127.624 17.5067 128.958 18.2C130.318 18.8667 131.384 19.9067 132.158 21.32C132.931 22.7067 133.318 24.4933 133.318 26.68V39H127.078V27.64C127.078 25.9067 126.691 24.6267 125.918 23.8C125.171 22.9733 124.104 22.56 122.718 22.56C121.731 22.56 120.838 22.7733 120.038 23.2C119.264 23.6 118.651 24.2267 118.198 25.08C117.771 25.9333 117.558 27.0267 117.558 28.36V39H111.318V17.48H117.278V23.44L116.158 21.64C116.931 20.2 118.038 19.0933 119.478 18.32C120.918 17.5467 122.558 17.16 124.398 17.16ZM147.774 39.32C145.24 39.32 143.267 38.68 141.854 37.4C140.44 36.0933 139.734 34.16 139.734 31.6V12.72H145.974V31.52C145.974 32.4267 146.214 33.1333 146.694 33.64C147.174 34.12 147.827 34.36 148.654 34.36C149.64 34.36 150.48 34.0933 151.174 33.56L152.854 37.96C152.214 38.4133 151.44 38.76 150.534 39C149.654 39.2133 148.734 39.32 147.774 39.32ZM136.414 22.76V17.96H151.334V22.76H136.414ZM165.933 39.32C163.639 39.32 161.599 38.84 159.813 37.88C158.053 36.92 156.653 35.6133 155.613 33.96C154.599 32.28 154.093 30.3733 154.093 28.24C154.093 26.08 154.599 24.1733 155.613 22.52C156.653 20.84 158.053 19.5333 159.813 18.6C161.599 17.64 163.639 17.16 165.933 17.16C168.199 17.16 170.226 17.64 172.013 18.6C173.799 19.5333 175.199 20.8267 176.213 22.48C177.226 24.1333 177.733 26.0533 177.733 28.24C177.733 30.3733 177.226 32.28 176.213 33.96C175.199 35.6133 173.799 36.92 172.013 37.88C170.226 38.84 168.199 39.32 165.933 39.32ZM165.933 34.2C166.973 34.2 167.906 33.96 168.733 33.48C169.559 33 170.213 32.32 170.693 31.44C171.173 30.5333 171.413 29.4667 171.413 28.24C171.413 26.9867 171.173 25.92 170.693 25.04C170.213 24.16 169.559 23.48 168.733 23C167.906 22.52 166.973 22.28 165.933 22.28C164.893 22.28 163.959 22.52 163.133 23C162.306 23.48 161.639 24.16 161.133 25.04C160.653 25.92 160.413 26.9867 160.413 28.24C160.413 29.4667 160.653 30.5333 161.133 31.44C161.639 32.32 162.306 33 163.133 33.48C163.959 33.96 164.893 34.2 165.933 34.2Z" fill="#1B4965"/>
<path d="M188.783 39V14.48H179.183V11H202.343V14.48H192.743V39H188.783ZM213.393 39.24C211.126 39.24 209.126 38.7733 207.393 37.84C205.686 36.9067 204.353 35.6267 203.393 34C202.459 32.3733 201.993 30.5067 201.993 28.4C201.993 26.2933 202.446 24.4267 203.353 22.8C204.286 21.1733 205.553 19.9067 207.153 19C208.779 18.0667 210.606 17.6 212.633 17.6C214.686 17.6 216.499 18.0533 218.073 18.96C219.646 19.8667 220.873 21.1467 221.753 22.8C222.659 24.4267 223.113 26.3333 223.113 28.52C223.113 28.68 223.099 28.8667 223.073 29.08C223.073 29.2933 223.059 29.4933 223.033 29.68H204.993V26.92H221.033L219.473 27.88C219.499 26.52 219.219 25.3067 218.633 24.24C218.046 23.1733 217.233 22.3467 216.193 21.76C215.179 21.1467 213.993 20.84 212.633 20.84C211.299 20.84 210.113 21.1467 209.073 21.76C208.033 22.3467 207.219 23.1867 206.633 24.28C206.046 25.3467 205.753 26.5733 205.753 27.96V28.6C205.753 30.0133 206.073 31.28 206.713 32.4C207.379 33.4933 208.299 34.3467 209.473 34.96C210.646 35.5733 211.993 35.88 213.513 35.88C214.766 35.88 215.899 35.6667 216.913 35.24C217.953 34.8133 218.859 34.1733 219.633 33.32L221.753 35.8C220.793 36.92 219.593 37.7733 218.153 38.36C216.739 38.9467 215.153 39.24 213.393 39.24ZM237.685 39.24C235.525 39.24 233.591 38.7733 231.885 37.84C230.205 36.9067 228.885 35.6267 227.925 34C226.965 32.3733 226.485 30.5067 226.485 28.4C226.485 26.2933 226.965 24.4267 227.925 22.8C228.885 21.1733 230.205 19.9067 231.885 19C233.591 18.0667 235.525 17.6 237.685 17.6C239.605 17.6 241.311 17.9867 242.805 18.76C244.325 19.5067 245.498 20.6267 246.325 22.12L243.405 24C242.711 22.96 241.858 22.2 240.845 21.72C239.858 21.2133 238.791 20.96 237.645 20.96C236.258 20.96 235.018 21.2667 233.925 21.88C232.831 22.4933 231.965 23.36 231.325 24.48C230.685 25.5733 230.365 26.88 230.365 28.4C230.365 29.92 230.685 31.24 231.325 32.36C231.965 33.48 232.831 34.3467 233.925 34.96C235.018 35.5733 236.258 35.88 237.645 35.88C238.791 35.88 239.858 35.64 240.845 35.16C241.858 34.6533 242.711 33.88 243.405 32.84L246.325 34.68C245.498 36.1467 244.325 37.28 242.805 38.08C241.311 38.8533 239.605 39.24 237.685 39.24ZM262.343 17.6C264.076 17.6 265.596 17.9333 266.903 18.6C268.236 19.2667 269.276 20.28 270.023 21.64C270.769 23 271.143 24.72 271.143 26.8V39H267.303V27.24C267.303 25.1867 266.796 23.64 265.783 22.6C264.796 21.56 263.396 21.04 261.583 21.04C260.223 21.04 259.036 21.3067 258.023 21.84C257.009 22.3733 256.223 23.16 255.663 24.2C255.129 25.24 254.863 26.5333 254.863 28.08V39H251.023V9.32H254.863V23.52L254.103 22C254.796 20.6133 255.863 19.5333 257.303 18.76C258.743 17.9867 260.423 17.6 262.343 17.6Z" fill="#780000"/>
</svg>
