<svg width="45" height="45" viewBox="0 0 45 45" fill="none" xmlns="http://www.w3.org/2000/svg">
<path d="M22.5 41.25C19.9062 41.25 17.4688 40.7578 15.1875 39.7734C12.9062 38.7891 10.9219 37.4531 9.23438 35.7656C7.54688 34.0781 6.21094 32.0938 5.22656 29.8125C4.24219 27.5312 3.75 25.0938 3.75 22.5C3.75 19.9062 4.24219 17.4688 5.22656 15.1875C6.21094 12.9062 7.54688 10.9219 9.23438 9.23438C10.9219 7.54688 12.9062 6.21094 15.1875 5.22656C17.4688 4.24219 19.9062 3.75 22.5 3.75C25.0938 3.75 27.5312 4.24219 29.8125 5.22656C32.0938 6.21094 34.0781 7.54688 35.7656 9.23438C37.4531 10.9219 38.7891 12.9062 39.7734 15.1875C40.7578 17.4688 41.25 19.9062 41.25 22.5V25.2188C41.25 27.0625 40.6172 28.6328 39.3516 29.9297C38.0859 31.2266 36.5312 31.875 34.6875 31.875C33.5938 31.875 32.5625 31.6406 31.5938 31.1719C30.625 30.7031 29.8125 30.0312 29.1562 29.1562C28.25 30.0625 27.2266 30.7422 26.0859 31.1953C24.9453 31.6484 23.75 31.875 22.5 31.875C19.9062 31.875 17.6953 30.9609 15.8672 29.1328C14.0391 27.3047 13.125 25.0938 13.125 22.5C13.125 19.9062 14.0391 17.6953 15.8672 15.8672C17.6953 14.0391 19.9062 13.125 22.5 13.125C25.0938 13.125 27.3047 14.0391 29.1328 15.8672C30.9609 17.6953 31.875 19.9062 31.875 22.5V25.2188C31.875 26.0312 32.1406 26.7188 32.6719 27.2812C33.2031 27.8438 33.875 28.125 34.6875 28.125C35.5 28.125 36.1719 27.8438 36.7031 27.2812C37.2344 26.7188 37.5 26.0312 37.5 25.2188V22.5C37.5 18.3125 36.0469 14.7656 33.1406 11.8594C30.2344 8.95312 26.6875 7.5 22.5 7.5C18.3125 7.5 14.7656 8.95312 11.8594 11.8594C8.95312 14.7656 7.5 18.3125 7.5 22.5C7.5 26.6875 8.95312 30.2344 11.8594 33.1406C14.7656 36.0469 18.3125 37.5 22.5 37.5H31.875V41.25H22.5ZM22.5 28.125C24.0625 28.125 25.3906 27.5781 26.4844 26.4844C27.5781 25.3906 28.125 24.0625 28.125 22.5C28.125 20.9375 27.5781 19.6094 26.4844 18.5156C25.3906 17.4219 24.0625 16.875 22.5 16.875C20.9375 16.875 19.6094 17.4219 18.5156 18.5156C17.4219 19.6094 16.875 20.9375 16.875 22.5C16.875 24.0625 17.4219 25.3906 18.5156 26.4844C19.6094 27.5781 20.9375 28.125 22.5 28.125Z" fill="#1B4965"/>
</svg>
