<svg width="850" height="758" viewBox="0 0 850 758" fill="none" xmlns="http://www.w3.org/2000/svg">
<path d="M773.405 738.138H475.936C471.792 738.18 467.684 737.413 463.874 735.886C460.064 734.359 456.634 732.106 453.805 729.269C450.975 726.433 448.808 723.076 447.44 719.411C446.071 715.747 445.533 711.856 445.859 707.986L487.372 118.608C488.067 110.488 491.965 102.901 498.308 97.3263C504.65 91.7519 512.981 88.5895 521.677 88.4555H819.12C823.262 88.417 827.367 89.1865 831.175 90.7149C834.982 92.2434 838.408 94.4974 841.235 97.3335C844.061 100.17 846.227 103.526 847.594 107.188C848.96 110.851 849.498 114.74 849.172 118.608L807.71 707.986C807.015 716.106 803.117 723.693 796.774 729.268C790.432 734.842 782.101 738.004 773.405 738.138Z" fill="#263238"/>
<path d="M836.031 246.946H800.019C799.019 246.955 798.028 246.77 797.109 246.401C796.19 246.032 795.362 245.489 794.68 244.804C793.997 244.12 793.474 243.31 793.144 242.426C792.813 241.542 792.683 240.604 792.76 239.67L796.351 188.621C796.552 186.68 797.51 184.876 799.042 183.556C800.574 182.235 802.572 181.491 804.654 181.465H840.641C841.629 181.456 842.608 181.639 843.518 182C844.428 182.362 845.249 182.894 845.93 183.566C846.611 184.237 847.137 185.032 847.475 185.902C847.814 186.771 847.958 187.697 847.899 188.621L844.308 239.67C844.143 241.63 843.204 243.463 841.673 244.808C840.142 246.154 838.13 246.916 836.031 246.946Z" fill="#263238"/>
<path d="M599.534 80.1062H586.366V82.4917H599.534V80.1062Z" fill="#1B4965"/>
<path d="M570.143 80.1062H522.263V82.4917H570.143V80.1062Z" fill="#1B4965"/>
<path d="M768.871 738.138H471.403C467.26 738.176 463.154 737.407 459.345 735.879C455.537 734.351 452.109 732.097 449.28 729.261C446.452 726.426 444.284 723.07 442.914 719.407C441.545 715.744 441.004 711.855 441.325 707.986L482.94 118.608C483.635 110.487 487.534 102.901 493.876 97.3262C500.219 91.7518 508.55 88.5893 517.246 88.4553H814.714C818.841 88.4401 822.927 89.2267 826.713 90.7654C830.499 92.3042 833.903 94.5616 836.711 97.3952C839.518 100.229 841.668 103.577 843.024 107.228C844.379 110.879 844.912 114.754 844.588 118.608L803.177 707.986C802.482 716.106 798.583 723.693 792.241 729.267C785.899 734.842 777.567 738.004 768.871 738.138Z" fill="#1B4965"/>
<path d="M782.369 669.484H467.659C465.305 669.507 462.972 669.071 460.807 668.204C458.643 667.337 456.695 666.057 455.088 664.445C453.48 662.834 452.248 660.928 451.471 658.846C450.693 656.765 450.386 654.555 450.57 652.357L486.709 139.242C487.1 134.641 489.303 130.34 492.889 127.175C496.475 124.01 501.19 122.206 506.116 122.114H820.903C823.257 122.091 825.59 122.527 827.755 123.394C829.919 124.262 831.867 125.542 833.474 127.153C835.082 128.764 836.314 130.671 837.091 132.752C837.869 134.833 838.176 137.043 837.992 139.242L801.853 652.357C801.46 656.969 799.247 661.28 795.645 664.447C792.042 667.614 787.309 669.41 782.369 669.484Z" fill="white"/>
<path d="M723.665 122.114H661.167L509.758 669.484H572.257L723.665 122.114Z" fill="#FAFAFA"/>
<path d="M778.728 122.114H747.478L596.07 669.484H627.319L778.728 122.114Z" fill="#FAFAFA"/>
<path d="M737.214 499.877L669.265 259.16C667.448 252.76 662.996 247.296 656.886 243.965C650.776 240.634 643.505 239.707 636.666 241.388L475.911 281.177L454.467 595.726L718.241 530.435C725.071 528.722 730.901 524.547 734.456 518.822C738.011 513.096 739.002 506.286 737.214 499.877Z" fill="#F0F0F0"/>
<path opacity="0.2" d="M636.39 710.238C644.559 702.836 645.187 691.033 637.793 683.874C630.4 676.716 617.785 676.913 609.616 684.314C601.448 691.715 600.819 703.519 608.213 710.677C615.606 717.836 628.222 717.639 636.39 710.238Z" fill="white"/>
<path opacity="0.2" d="M673.009 104.319C672.832 106.397 671.833 108.339 670.208 109.764C668.583 111.189 666.448 111.995 664.223 112.024C663.168 112.027 662.124 111.825 661.157 111.432C660.189 111.038 659.319 110.462 658.602 109.738C657.884 109.014 657.334 108.159 656.987 107.226C656.639 106.294 656.501 105.304 656.582 104.319C656.754 102.238 657.751 100.294 659.377 98.8675C661.004 97.4414 663.141 96.6374 665.369 96.6138C666.423 96.6109 667.467 96.8125 668.434 97.206C669.402 97.5994 670.272 98.1762 670.989 98.9C671.707 99.6237 672.257 100.479 672.605 101.411C672.952 102.344 673.09 103.334 673.009 104.319Z" fill="white"/>
<path opacity="0.2" d="M669.291 104.319C669.202 105.463 668.658 106.533 667.767 107.32C666.875 108.106 665.702 108.55 664.477 108.565C663.893 108.574 663.314 108.468 662.776 108.253C662.239 108.039 661.755 107.722 661.357 107.322C660.958 106.921 660.654 106.447 660.463 105.93C660.272 105.413 660.2 104.864 660.25 104.319C660.339 103.175 660.883 102.105 661.774 101.318C662.665 100.532 663.839 100.088 665.063 100.073C665.647 100.064 666.227 100.17 666.764 100.384C667.302 100.599 667.786 100.916 668.184 101.316C668.582 101.716 668.887 102.19 669.077 102.708C669.268 103.225 669.341 103.774 669.291 104.319Z" fill="white"/>
<path d="M190.871 74.5481C200.371 52.6733 196.958 26.0276 170.013 20.0639C164.075 18.6312 157.862 18.5214 151.871 19.7434C145.88 20.9654 140.278 23.4853 135.514 27.1008C130.75 30.7164 126.957 35.3272 124.438 40.5634C121.92 45.7997 120.747 51.5158 121.012 57.2534C122.082 81.1081 138.84 100.979 109.475 118.274C80.1102 135.568 83.2427 187.691 140.037 177.624C196.831 167.558 166.142 140.196 166.142 140.196C166.142 140.196 152.211 150.835 147.728 140.005C142.049 125.979 179.869 100.144 190.871 74.5481Z" fill="#263238"/>
<path d="M90.9342 146.303L89.6863 146.041C93.481 130.13 99.4406 126.027 105.731 121.685C112.022 117.344 117.981 113.217 122.795 97.568C125.062 90.1969 123.635 82.0385 122.235 74.1665C120.452 64.1236 118.618 53.723 124.145 44.4197L125.24 45.016C119.942 53.9377 121.751 64.0998 123.483 73.9757C124.909 81.9909 126.386 90.2684 124.017 97.8304C119.102 113.861 112.684 118.274 106.495 122.568C100.307 126.862 94.6271 130.845 90.9342 146.303Z" fill="#263238"/>
<path d="M263.201 194.704C263.379 195.515 263.685 196.732 263.965 197.829L264.856 201.193C265.468 203.459 266.155 205.725 266.868 207.991C268.32 212.5 269.874 217.056 271.554 221.541C274.916 230.565 278.758 239.426 283.066 248.091L286.275 254.365C286.818 255.486 287.588 256.499 288.542 257.347C291.404 259.503 294.82 260.918 298.449 261.45C307.971 262.892 317.68 262.892 327.202 261.45L330.641 271.588C328.006 272.676 325.311 273.631 322.567 274.45C319.841 275.3 317.07 276.016 314.265 276.597C308.423 277.858 302.427 278.379 296.437 278.148C289.389 277.962 282.535 275.938 276.648 272.304C273.336 270.151 270.542 267.372 268.447 264.145L268.04 263.549L267.785 263.143L267.276 262.284L266.232 260.615L264.169 257.227C258.839 248.129 254.16 238.709 250.161 229.031C248.226 224.26 246.315 219.274 244.762 214.241C243.998 211.856 243.234 209.208 242.546 206.631C241.859 204.055 241.247 201.622 240.687 198.569L263.201 194.704Z" fill="#FFC3BD"/>
<path d="M243.539 161.356C269.237 172.09 269.008 208.159 269.008 208.159L241.935 223.402C241.935 223.402 221.56 195.158 223.088 182.324C224.591 168.941 228.972 155.32 243.539 161.356Z" fill="#1B4965"/>
<path opacity="0.2" d="M247.589 192.128C240.56 185.472 234.371 193.154 228.717 201.67C232.594 209.2 237.01 216.476 241.935 223.449L253.039 217.199C255.229 209.256 254.592 198.807 247.589 192.128Z" fill="black"/>
<path d="M324.528 262.356L342.611 253.912L342.814 276.073C342.814 276.073 329.316 278.267 320.326 269.393L324.528 262.356Z" fill="#FFC3BD"/>
<path d="M362.043 257.848L358.936 274.307L342.814 276.073L342.611 253.912L362.043 257.848Z" fill="#FFC3BD"/>
<path d="M159.01 720.533L181.372 722.537L191.788 673.802L169.427 671.798L159.01 720.533Z" fill="#FFC3BD"/>
<path d="M12.3904 663.401L30.5746 675.806L60.9072 635.491L42.6975 623.087L12.3904 663.401Z" fill="#FFC3BD"/>
<path d="M37.2472 668.053L22.272 648.85C22.023 648.51 21.6485 648.268 21.2206 648.171C20.7927 648.074 20.3417 648.129 19.9543 648.325L1.9993 657.247C1.55552 657.488 1.17113 657.814 0.871352 658.204C0.571576 658.594 0.363166 659.039 0.259771 659.51C0.156376 659.981 0.160342 660.467 0.271391 660.936C0.382439 661.405 0.598078 661.847 0.90417 662.233C6.25248 668.84 9.18131 671.774 15.7776 680.243C19.8525 685.443 28.0023 697.49 33.6053 704.67C39.2083 711.85 47.0779 707.055 45.448 703.597C38.0622 688.067 37.8075 678.979 38.3678 671.703C38.4746 670.4 38.0768 669.104 37.2472 668.053Z" fill="#263238"/>
<path d="M184.326 716.216H157.482C157 716.216 156.531 716.367 156.148 716.643C155.766 716.919 155.492 717.305 155.369 717.742L149.536 737.566C149.393 738.035 149.369 738.529 149.466 739.008C149.564 739.487 149.779 739.939 150.096 740.326C150.413 740.713 150.822 741.025 151.291 741.238C151.76 741.45 152.275 741.557 152.796 741.549C162.27 741.549 166.753 741.549 178.545 741.549H214.633C224.438 741.549 226.476 732.27 222.426 731.411C204.242 727.642 193.749 722.442 188.121 717.48C187.072 716.624 185.716 716.173 184.326 716.216Z" fill="#263238"/>
<path opacity="0.2" d="M191.788 673.826L186.414 698.945H163.62L169.427 671.822L191.788 673.826Z" fill="black"/>
<path opacity="0.2" d="M42.6975 623.087L60.9073 635.515L45.2698 656.293L27.0601 643.864L42.6975 623.087Z" fill="black"/>
<path d="M254.134 180.368C252.555 196.47 246.85 228.077 230.169 289.837L138.636 282.418C143.042 250.238 145.105 229.389 136.497 168.464C136.217 166.45 136.382 164.404 136.982 162.453C137.582 160.501 138.604 158.686 139.985 157.12C141.365 155.554 143.075 154.271 145.007 153.35C146.939 152.429 149.053 151.89 151.217 151.766C157.814 151.432 165.658 151.217 173.527 151.504C187.45 151.699 201.34 152.823 215.092 154.867C223.165 156.227 231.773 158.183 238.777 159.9C243.507 161.061 247.645 163.754 250.456 167.501C253.268 171.248 254.571 175.806 254.134 180.368Z" fill="#1B4965"/>
<path opacity="0.2" d="M138.84 186.308C140.011 195.849 140.877 204.366 141.387 211.999C149.817 211.307 156.031 202.648 156.668 184.542C153.51 175.788 145.996 178.96 138.84 186.308Z" fill="black"/>
<path d="M230.169 289.837C230.169 289.837 261.138 418.175 240.356 508.656C226.527 569.247 195.736 691.645 195.736 691.645L156.693 690.715C156.693 690.715 175.336 562.257 183.154 511.805C196.525 425.403 163.034 284.493 163.034 284.493L230.169 289.837Z" fill="#263238"/>
<path opacity="0.2" d="M194.462 315.767L174.928 344.607C180.81 378.803 184.544 413.292 186.109 447.898C213.563 401.858 200.549 340.122 194.462 315.767Z" fill="black"/>
<path d="M201.339 693.554L153.102 692.409L155.904 678.525L205.108 680.696L201.339 693.554Z" fill="#1B4965"/>
<path d="M210.151 288.477C210.151 288.477 191.992 424.568 152.592 498.876C120.783 558.894 54.2344 654.289 54.2344 654.289L29.9124 636.04C29.9124 636.04 71.5273 530.531 95.1618 490.67C153.153 392.865 105.757 318.319 138.636 282.418L210.151 288.477Z" fill="#263238"/>
<path d="M591.044 167.367L158.145 337.729C144.555 343.077 138.167 357.732 143.877 370.461L246.84 599.995C252.55 612.724 268.196 618.708 281.786 613.359L714.685 442.997C728.275 437.649 734.663 422.995 728.953 410.266L625.99 180.731C620.28 168.002 604.634 162.018 591.044 167.367Z" fill="#1B4965"/>
<path opacity="0.1" d="M591.044 167.367L158.145 337.729C144.555 343.077 138.167 357.732 143.877 370.461L246.84 599.995C252.55 612.724 268.196 618.708 281.786 613.359L714.685 442.997C728.275 437.649 734.663 422.995 728.953 410.266L625.99 180.731C620.28 168.002 604.634 162.018 591.044 167.367Z" fill="black"/>
<path opacity="0.2" d="M277.557 327.511L192.795 360.868C186.259 363.44 183.187 370.487 185.933 376.609L203.799 416.437C206.545 422.559 214.069 425.436 220.605 422.864L305.367 389.507C311.903 386.935 314.975 379.887 312.229 373.766L294.363 333.938C291.617 327.816 284.093 324.939 277.557 327.511Z" fill="white"/>
<path opacity="0.4" d="M337.034 484.948L253.986 517.631C251.535 518.596 250.383 521.238 251.412 523.534L257.716 537.587C258.746 539.883 261.568 540.962 264.018 539.997L347.067 507.315C349.518 506.35 350.67 503.707 349.64 501.412L343.336 487.359C342.306 485.063 339.485 483.984 337.034 484.948Z" fill="white"/>
<path opacity="0.4" d="M445.084 442.438L362.036 475.121C359.585 476.085 358.433 478.728 359.463 481.024L365.767 495.077C366.796 497.372 369.618 498.452 372.069 497.487L455.117 464.804C457.568 463.84 458.72 461.197 457.69 458.901L451.386 444.848C450.357 442.553 447.535 441.474 445.084 442.438Z" fill="white"/>
<path opacity="0.4" d="M553.109 399.928L470.061 432.611C467.61 433.576 466.458 436.218 467.488 438.514L473.792 452.567C474.821 454.863 477.643 455.942 480.094 454.977L563.142 422.295C565.593 421.33 566.745 418.687 565.715 416.392L559.412 402.338C558.382 400.043 555.56 398.964 553.109 399.928Z" fill="white"/>
<path opacity="0.4" d="M661.16 357.418L578.111 390.101C575.66 391.065 574.508 393.708 575.538 396.004L581.842 410.057C582.872 412.352 585.693 413.431 588.144 412.467L671.193 379.784C673.643 378.82 674.795 376.177 673.766 373.881L667.462 359.828C666.432 357.533 663.611 356.454 661.16 357.418Z" fill="white"/>
<path d="M56.7813 656.818L25.5828 634.704L33.2487 621.871L66.4082 645.964L56.7813 656.818Z" fill="#1B4965"/>
<path d="M137.719 277.289L132.88 284.636C132.498 285.185 133.211 285.877 134.256 285.948L230.271 293.725C231.086 293.725 231.799 293.463 231.901 292.986L233.429 285.376C233.556 284.851 232.868 284.35 231.977 284.279L139.273 276.764C138.988 276.721 138.695 276.747 138.424 276.839C138.152 276.931 137.91 277.086 137.719 277.289Z" fill="#1B4965"/>
<path opacity="0.5" d="M137.719 277.289L132.88 284.636C132.498 285.185 133.211 285.877 134.256 285.948L230.271 293.725C231.086 293.725 231.799 293.463 231.901 292.986L233.429 285.376C233.556 284.851 232.868 284.35 231.977 284.279L139.273 276.764C138.988 276.721 138.695 276.747 138.424 276.839C138.152 276.931 137.91 277.086 137.719 277.289Z" fill="black"/>
<path d="M149.307 288L146.76 287.809C146.277 287.809 145.92 287.499 145.971 287.213L148.059 277.337C148.059 277.027 148.569 276.836 149.078 276.884L151.625 277.075C152.134 277.075 152.491 277.385 152.414 277.671L150.326 287.547C150.224 287.833 149.766 288.048 149.307 288Z" fill="#1B4965"/>
<path d="M223.165 293.987L220.618 293.797C220.134 293.797 219.778 293.486 219.829 293.2L221.917 283.324C222.009 283.153 222.159 283.016 222.343 282.934C222.528 282.852 222.736 282.83 222.936 282.871L225.483 283.062C225.992 283.062 226.348 283.372 226.272 283.658L224.184 293.534C224.158 293.868 223.7 294.035 223.165 293.987Z" fill="#1B4965"/>
<path d="M186.236 291.006L183.689 290.791C183.18 290.791 182.823 290.481 182.9 290.195L184.988 280.319C184.988 280.033 185.497 279.818 185.981 279.866L188.528 280.08C189.012 280.08 189.369 280.39 189.318 280.677L187.229 290.552C187.178 290.839 186.745 291.03 186.236 291.006Z" fill="#1B4965"/>
<path d="M42.9522 678.668C42.6657 678.715 42.3728 678.715 42.0863 678.668C39.3103 678.144 36.9927 673.731 35.7702 671.154C35.722 671.087 35.6963 671.008 35.6963 670.928C35.6963 670.847 35.722 670.768 35.7702 670.701C35.8363 670.655 35.9168 670.629 35.9994 670.629C36.0821 670.629 36.1625 670.655 36.2286 670.701C37.0945 670.987 44.6841 673.73 45.2698 676.331C45.3402 676.612 45.325 676.907 45.2259 677.181C45.1269 677.455 44.9481 677.697 44.7095 677.881C44.228 678.312 43.6124 678.588 42.9522 678.668ZM37.0182 671.703C38.75 675.257 40.6856 677.523 42.2646 677.81C42.6212 677.86 42.9856 677.825 43.324 677.709C43.6624 677.592 43.9638 677.397 44.2002 677.142C44.3275 677.053 44.4243 676.931 44.4786 676.791C44.5329 676.651 44.5423 676.499 44.5058 676.355C44.1492 674.756 39.6414 672.705 37.0182 671.703Z" fill="#1B4965"/>
<path d="M43.1814 672.037C40.7605 672.318 38.303 672.073 35.9994 671.321C35.929 671.292 35.8684 671.245 35.8236 671.187C35.7788 671.128 35.7516 671.059 35.7447 670.987C35.7348 670.915 35.7461 670.841 35.7775 670.773C35.8089 670.706 35.8592 670.648 35.923 670.606C36.1522 670.463 41.3986 666.884 44.5567 667.552C44.9468 667.622 45.3157 667.771 45.637 667.99C45.9584 668.208 46.2243 668.491 46.4158 668.817C46.6679 669.115 46.8049 669.485 46.8049 669.866C46.8049 670.247 46.6679 670.617 46.4158 670.916C45.5097 671.63 44.3659 672.027 43.1814 672.037ZM37.2473 670.773C39.7941 671.464 44.5567 671.512 45.7282 670.296C45.932 670.105 46.1102 669.795 45.7282 669.174C45.6025 668.953 45.4251 668.76 45.209 668.611C44.9929 668.463 44.7438 668.362 44.4803 668.316C42.3409 667.91 38.6735 669.89 37.2473 670.773Z" fill="#1B4965"/>
<path d="M196.245 720.271C193.776 720.212 191.319 719.925 188.91 719.412C188.828 719.379 188.759 719.324 188.71 719.254C188.661 719.184 188.635 719.102 188.635 719.019C188.635 718.935 188.661 718.853 188.71 718.783C188.759 718.713 188.828 718.658 188.91 718.625C190.031 718.124 199.76 713.854 202.205 715.476C202.431 715.611 202.612 715.804 202.725 716.033C202.838 716.261 202.878 716.515 202.841 716.764C202.835 717.231 202.712 717.69 202.482 718.105C202.252 718.519 201.922 718.877 201.517 719.15C199.932 720.041 198.085 720.434 196.245 720.271ZM190.438 718.84C193.342 719.341 198.69 720.008 200.88 718.458C201.164 718.249 201.397 717.985 201.564 717.685C201.731 717.385 201.828 717.055 201.848 716.717C201.848 716.383 201.848 716.239 201.619 716.168C200.244 715.285 194.488 717.17 190.438 718.84Z" fill="#1B4965"/>
<path d="M189.012 719.412C188.922 719.446 188.822 719.446 188.732 719.412C188.666 719.367 188.616 719.304 188.589 719.232C188.561 719.159 188.558 719.081 188.579 719.007C188.579 718.601 190.871 709.608 196.219 710.181C197.544 710.347 197.9 710.944 197.977 711.445C198.308 713.83 192.17 718.363 189.216 719.484L189.012 719.412ZM195.685 710.896C192.297 710.896 190.336 716.144 189.674 718.243C192.858 716.669 197.315 712.924 197.034 711.469C197.034 711.349 197.034 711.015 196.041 710.92L195.685 710.896Z" fill="#1B4965"/>
<path d="M148.772 186.737L147.422 188.526L145.945 190.554C144.952 191.937 143.959 193.345 143.016 194.8C141.081 197.662 139.324 200.644 137.541 203.626C134.02 209.624 130.924 215.831 128.27 222.209C125.595 228.548 123.358 235.042 121.572 241.65L120.375 246.421C120.375 246.278 120.222 246.779 120.503 247.686C121.379 250.235 122.658 252.647 124.297 254.842C128.411 260.382 133.03 265.578 138.101 270.371C143.195 275.429 148.849 280.319 154.477 285.185C160.106 290.052 166.014 294.727 171.923 299.331C177.831 303.935 183.867 308.587 189.751 313.071L183.383 321.874C169.741 314.295 156.57 305.996 143.933 297.017C137.566 292.532 131.327 287.809 125.291 282.704C118.961 277.509 113.187 271.748 108.049 265.505C104.969 261.839 102.559 257.72 100.918 253.315C99.8029 250.25 99.4289 246.991 99.8224 243.773V243.106V242.748L99.9497 242.032L100.204 240.577L100.739 237.69C102.238 230.007 104.349 222.44 107.055 215.052C109.854 207.701 113.164 200.53 116.962 193.583C118.873 190.1 120.961 186.737 123.202 183.421C124.297 181.751 125.443 180.105 126.64 178.459L128.525 176.074C129.187 175.239 129.748 174.499 130.639 173.474L148.772 186.737Z" fill="#FFC3BD"/>
<path d="M146.506 153.125C129.034 157.419 112.175 197.09 112.175 197.09L134.79 216.46C134.79 216.46 170.318 186.116 169.121 172.424C168.128 160.783 160.539 149.643 146.506 153.125Z" fill="#1B4965"/>
<path opacity="0.2" d="M173.527 150.74C170.327 151.352 167.064 151.632 163.799 151.575C163.111 163.359 171.184 174.738 191.024 190.005C195.787 176.098 206.305 173.092 206.305 173.092L173.527 150.74Z" fill="black"/>
<path opacity="0.2" d="M215.091 154.485C215.091 154.485 217.409 154.795 222.936 155.988C226.629 161.308 231.417 177.696 220.542 189.385C216.314 175.072 206.229 173.259 206.229 173.259L215.091 154.485Z" fill="black"/>
<path d="M173.527 150.74C173.527 150.74 168.434 150.74 162.22 150.74C158.527 156.06 171.235 170.802 191.05 186.069C195.812 172.162 206.33 172.997 206.33 172.997L173.527 150.74Z" fill="white"/>
<path d="M215.091 154.485C215.091 154.485 217.409 154.795 222.936 155.988C226.629 161.308 234.6 175.716 223.725 187.309C219.497 172.997 206.229 173.187 206.229 173.187L215.091 154.485Z" fill="white"/>
<path d="M181.703 107.921C183.18 120.659 183.664 143.703 173.527 151.432C173.527 151.432 178.799 165.745 206.228 173.187C222.732 164.266 215.091 154.795 215.091 154.795C200.498 150.263 201.848 139.934 205.337 130.392L181.703 107.921Z" fill="#FFC3BD"/>
<path opacity="0.2" d="M191.33 117.105L205.337 130.392C204.479 132.6 203.831 134.875 203.402 137.191C197.773 135.974 189.623 130.487 189.547 124.858C189.651 122.195 190.254 119.571 191.33 117.105Z" fill="black"/>
<path d="M212.672 57.0148C217.129 52.4108 225.966 58.2791 229.226 69.5624C234.116 86.2606 221.076 87.4534 214.251 79.1042C207.426 70.7551 208.954 60.8554 212.672 57.0148Z" fill="#263238"/>
<path d="M226.476 86.3324C230.948 87.7818 235.175 89.822 239.031 92.3914C236.816 87.3342 234.829 84.257 226.476 86.3324Z" fill="#263238"/>
<path d="M229.048 87.1196C232.668 86.4444 236.372 86.2517 240.05 86.547C236.434 83.9469 233.811 82.6587 229.048 87.1196Z" fill="#263238"/>
<path d="M169.682 88.0261C175.361 108.374 177.322 117.105 190.617 125.621C210.66 138.455 236.103 127.482 237.045 105.941C237.885 86.5709 228.462 56.5617 205.21 52.3156C200.086 51.3413 194.78 51.6147 189.801 53.1095C184.822 54.6044 180.336 57.2708 176.771 60.8537C173.207 64.4366 170.683 68.8162 169.442 73.5736C168.201 78.331 168.283 83.3071 169.682 88.0261Z" fill="#FFC3BD"/>
<path d="M180.175 61.1895L173.884 68.0358C171.997 70.0585 169.334 71.3031 166.474 71.4995C163.613 71.696 160.785 70.8286 158.603 69.0854C156.44 67.3209 155.106 64.8287 154.892 62.1494C154.677 59.4701 155.599 56.8196 157.457 54.7726L163.748 47.9501C165.635 45.9293 168.295 44.6843 171.154 44.4835C174.012 44.2827 176.84 45.1422 179.029 46.8766C181.186 48.6446 182.515 51.1359 182.73 53.8133C182.944 56.4908 182.026 59.1399 180.175 61.1895Z" fill="white"/>
<path d="M185.981 68.8229L178.341 72.4011C175.205 73.8397 171.589 74.0576 168.282 73.0073C164.975 71.957 162.246 69.7237 160.691 66.7952C159.154 63.8545 158.921 60.4638 160.042 57.3626C161.163 54.2614 163.548 51.7011 166.676 50.24L174.317 46.6618C177.46 45.2239 181.082 45.0088 184.393 46.0635C187.705 47.1183 190.436 49.3572 191.992 52.2915C193.526 55.2317 193.755 58.6211 192.629 61.7189C191.502 64.8167 189.112 67.3708 185.981 68.8229Z" fill="#1B4965"/>
<path d="M176.202 103.245C176.202 103.245 191.89 99.8819 185.217 78.3888C184.968 77.5617 184.925 76.6921 185.09 75.8468C185.255 75.0015 185.625 74.2028 186.171 73.512C186.716 72.8212 187.424 72.2565 188.239 71.8614C189.053 71.4663 189.954 71.2511 190.871 71.2324C208.546 70.7792 225.075 67.3202 222.732 57.7306C219.803 45.6124 175.769 36.2614 167.772 60.5216C152.16 63.9328 151.574 92.7493 176.202 103.245Z" fill="#263238"/>
<path d="M176.278 98.9992C180.75 100.449 184.978 102.489 188.834 105.058C186.618 100.049 184.631 96.9715 176.278 98.9992Z" fill="#263238"/>
<path d="M178.85 99.834C182.471 99.1588 186.175 98.9661 189.853 99.2615C186.262 96.709 183.638 95.397 178.85 99.834Z" fill="#263238"/>
<path d="M166.116 104.009C168.15 107.602 171.621 110.296 175.769 111.499C181.295 113.05 184.148 108.47 182.721 103.532C181.422 99.0947 176.991 92.9641 171.414 93.5604C170.2 93.7177 169.048 94.1551 168.06 94.8333C167.072 95.5114 166.28 96.4091 165.754 97.4455C165.229 98.4818 164.987 99.6242 165.05 100.77C165.113 101.916 165.48 103.029 166.116 104.009Z" fill="#FFC3BD"/>
<path d="M206.509 87.3341C206.865 89.0039 208.113 90.1967 209.259 89.982C210.405 89.7673 211.093 88.2167 210.762 86.5469C210.431 84.8771 209.157 83.6843 207.986 83.899C206.814 84.1137 206.152 85.6404 206.509 87.3341Z" fill="#263238"/>
<path d="M226.756 83.5891C227.112 85.2828 228.335 86.4516 229.507 86.2369C230.678 86.0222 231.34 84.4955 230.984 82.8257C230.627 81.1559 229.405 79.9631 228.233 80.1778C227.062 80.3925 226.399 81.9192 226.756 83.5891Z" fill="#263238"/>
<path d="M227.749 80.3687L231.798 78.4126C231.798 78.4126 230.245 81.967 227.749 80.3687Z" fill="#263238"/>
<path d="M219.803 87.7876C222.2 91.3241 225.105 94.5349 228.437 97.3295C227.66 98.1268 226.704 98.7539 225.639 99.1662C224.574 99.5785 223.425 99.7659 222.273 99.715L219.803 87.7876Z" fill="#ED847E"/>
<path d="M213.996 107.611C210.228 107.656 206.583 106.35 203.809 103.961C203.726 103.881 203.68 103.774 203.68 103.663C203.68 103.551 203.726 103.445 203.809 103.365C203.894 103.287 204.009 103.244 204.127 103.244C204.246 103.244 204.36 103.287 204.446 103.365C206.16 104.78 208.207 105.797 210.419 106.331C212.632 106.866 214.948 106.904 217.18 106.442C217.295 106.423 217.413 106.447 217.508 106.51C217.604 106.573 217.669 106.668 217.689 106.776C217.709 106.883 217.683 106.994 217.616 107.083C217.55 107.173 217.447 107.234 217.333 107.253C216.237 107.484 215.119 107.604 213.996 107.611Z" fill="#263238"/>
<path d="M194.36 80.8219C194.2 80.8157 194.043 80.7749 193.902 80.7026C193.699 80.5886 193.553 80.404 193.496 80.1893C193.439 79.9746 193.475 79.7474 193.596 79.5576C194.439 78.2172 195.611 77.0848 197.015 76.2549C198.42 75.4249 200.015 74.9215 201.67 74.7866C201.904 74.7863 202.13 74.8702 202.301 75.021C202.471 75.1719 202.574 75.3783 202.587 75.5977C202.59 75.7073 202.57 75.8165 202.529 75.919C202.487 76.0216 202.424 76.1154 202.344 76.1951C202.263 76.2749 202.167 76.339 202.06 76.3839C201.953 76.4287 201.838 76.4534 201.721 76.4564C200.354 76.5972 199.044 77.0406 197.897 77.7499C196.75 78.4593 195.799 79.4141 195.124 80.5356C195.031 80.6373 194.913 80.7164 194.78 80.7662C194.647 80.8161 194.503 80.8352 194.36 80.8219Z" fill="#263238"/>
<path d="M232.384 74.0947C232.243 74.1302 232.093 74.1302 231.951 74.0947C230.764 73.4387 229.428 73.0537 228.052 72.9708C226.676 72.8879 225.298 73.1095 224.031 73.6177C223.805 73.7252 223.542 73.7442 223.301 73.6704C223.06 73.5965 222.86 73.436 222.745 73.2241C222.63 73.0121 222.61 72.7661 222.688 72.5402C222.767 72.3143 222.939 72.1269 223.165 72.0194C224.69 71.3722 226.359 71.0797 228.031 71.1669C229.703 71.2541 231.327 71.7185 232.766 72.5204C232.868 72.5725 232.957 72.6431 233.029 72.7282C233.101 72.8132 233.154 72.9109 233.185 73.0154C233.216 73.1199 233.224 73.2292 233.209 73.3368C233.194 73.4443 233.156 73.5479 233.097 73.6415C233.033 73.7703 232.933 73.8804 232.808 73.9602C232.682 74.04 232.536 74.0865 232.384 74.0947Z" fill="#263238"/>
<path d="M181.422 309.517L201.797 310.853L192.603 331.249C192.603 331.249 175.59 326.215 174.903 314.55L181.422 309.517Z" fill="#FFC3BD"/>
<path d="M209.616 322.398L199.76 336.329L192.628 331.248L201.873 310.853L209.616 322.398Z" fill="#FFC3BD"/>
<path d="M207.502 84.0899L211.551 82.1338C211.551 82.1338 209.998 85.6881 207.502 84.0899Z" fill="#263238"/>
</svg>
