<svg width="45" height="45" viewBox="0 0 45 45" fill="none" xmlns="http://www.w3.org/2000/svg">
<path d="M22.5 22.5C20.4375 22.5 18.6719 21.7656 17.2031 20.2969C15.7344 18.8281 15 17.0625 15 15C15 12.9375 15.7344 11.1719 17.2031 9.70312C18.6719 8.23437 20.4375 7.5 22.5 7.5C24.5625 7.5 26.3281 8.23437 27.7969 9.70312C29.2656 11.1719 30 12.9375 30 15C30 17.0625 29.2656 18.8281 27.7969 20.2969C26.3281 21.7656 24.5625 22.5 22.5 22.5ZM7.5 37.5V32.25C7.5 31.1875 7.77344 30.2109 8.32031 29.3203C8.86719 28.4297 9.59375 27.75 10.5 27.2812C12.4375 26.3125 14.4062 25.5859 16.4062 25.1016C18.4063 24.6172 20.4375 24.375 22.5 24.375C24.5625 24.375 26.5937 24.6172 28.5938 25.1016C30.5938 25.5859 32.5625 26.3125 34.5 27.2812C35.4063 27.75 36.1328 28.4297 36.6797 29.3203C37.2266 30.2109 37.5 31.1875 37.5 32.25V37.5H7.5ZM11.25 33.75H33.75V32.25C33.75 31.9062 33.6641 31.5938 33.4922 31.3125C33.3203 31.0312 33.0938 30.8125 32.8125 30.6562C31.125 29.8125 29.4219 29.1797 27.7031 28.7578C25.9844 28.3359 24.25 28.125 22.5 28.125C20.75 28.125 19.0156 28.3359 17.2969 28.7578C15.5781 29.1797 13.875 29.8125 12.1875 30.6562C11.9062 30.8125 11.6797 31.0312 11.5078 31.3125C11.3359 31.5938 11.25 31.9062 11.25 32.25V33.75ZM22.5 18.75C23.5312 18.75 24.4141 18.3828 25.1484 17.6484C25.8828 16.9141 26.25 16.0312 26.25 15C26.25 13.9688 25.8828 13.0859 25.1484 12.3516C24.4141 11.6172 23.5312 11.25 22.5 11.25C21.4688 11.25 20.5859 11.6172 19.8516 12.3516C19.1172 13.0859 18.75 13.9688 18.75 15C18.75 16.0312 19.1172 16.9141 19.8516 17.6484C20.5859 18.3828 21.4688 18.75 22.5 18.75Z" fill="#1B4965"/>
</svg>
